<svg width="19" height="19" viewBox="0 0 19 19" fill="none" xmlns="http://www.w3.org/2000/svg">
<path d="M10.9004 6.9C10.9527 6.9 11.005 6.9048 11.0572 6.9144C11.1383 6.93253 11.214 6.96133 11.2844 7.0008C11.3495 7.03707 11.4103 7.08133 11.4668 7.1336C11.5202 7.18907 11.5639 7.24933 11.598 7.3144C11.6642 7.43222 11.6994 7.56488 11.7004 7.7V12.5C11.7004 12.7122 11.6162 12.9157 11.4661 13.0657C11.3161 13.2157 11.1126 13.3 10.9004 13.3C10.6883 13.3 10.4848 13.2157 10.3348 13.0657C10.1847 12.9157 10.1004 12.7122 10.1004 12.5V9.6312L1.86685 17.8664C1.79257 17.9408 1.70437 17.9998 1.60728 18.0401C1.5102 18.0804 1.40613 18.1012 1.30101 18.1012C1.19589 18.1013 1.09179 18.0807 0.994651 18.0405C0.897508 18.0004 0.809226 17.9415 0.734845 17.8672C0.660464 17.7929 0.601442 17.7047 0.561147 17.6076C0.520852 17.5106 0.500074 17.4065 0.5 17.3014C0.499926 17.1963 0.520556 17.0921 0.560714 16.995C0.600871 16.8979 0.659769 16.8096 0.734045 16.7352L8.96924 8.5H6.10044C5.88827 8.5 5.68479 8.41571 5.53476 8.26569C5.38473 8.11566 5.30045 7.91217 5.30045 7.7C5.30045 7.48783 5.38473 7.28434 5.53476 7.13432C5.68479 6.98429 5.88827 6.9 6.10044 6.9H10.9004ZM16.5004 0.5C16.9248 0.5 17.3318 0.668571 17.6318 0.968629C17.9319 1.26869 18.1004 1.67565 18.1004 2.1V16.5C18.1004 16.9243 17.9319 17.3313 17.6318 17.6314C17.3318 17.9314 16.9248 18.1 16.5004 18.1H10.9004C10.6883 18.1 10.4848 18.0157 10.3348 17.8657C10.1847 17.7157 10.1004 17.5122 10.1004 17.3C10.1004 17.0878 10.1847 16.8843 10.3348 16.7343C10.4848 16.5843 10.6883 16.5 10.9004 16.5H16.5004V2.1H2.10045V7.7C2.10045 7.91217 2.01616 8.11566 1.86613 8.26569C1.7161 8.41571 1.51262 8.5 1.30045 8.5C1.08827 8.5 0.884789 8.41571 0.73476 8.26569C0.584731 8.11566 0.500445 7.91217 0.500445 7.7V2.1C0.500445 1.67565 0.669016 1.26869 0.969074 0.968629C1.26913 0.668571 1.6761 0.5 2.10045 0.5H16.5004Z" fill="white" stroke="white"/>
</svg>
