<svg width="25" height="24" viewBox="0 0 25 24" fill="none" xmlns="http://www.w3.org/2000/svg">
<path d="M19.8897 16.5036L16.6912 14.6295L21.8382 10.7314L25 12.6055L19.8897 16.5036ZM0 24V21.0014H7.35294V12.0807L2.94118 9.49445C2.23039 9.06965 1.77108 8.46394 1.56324 7.67732C1.35539 6.8907 1.45931 6.13456 1.875 5.40891L4.08088 1.51078C4.49755 0.786123 5.09216 0.317848 5.86471 0.105949C6.63725 -0.105949 7.37843 -8.93641e-08 8.08823 0.423797L22.0956 8.66984L13.125 15.4916L10.2941 13.8424V21.0014C10.2941 21.826 10.0059 22.5322 9.42941 23.1199C8.85294 23.7076 8.16078 24.001 7.35294 24H0Z" fill="#0008E6"/>
</svg>
