<svg width="517" height="69" viewBox="0 0 517 69" fill="none" xmlns="http://www.w3.org/2000/svg">
<path d="M0 68.321L4.5555 0.615505H17.993L14.246 43.3546L25.6492 0.615505H38.4618L34.5976 43.3546L45.8055 0.615505H59.3993L39.9609 68.321H23.4766L25.7844 35.7378L16.7578 68.321H0Z" fill="url(#paint0_linear_370_484)"/>
<path d="M71.0602 68.9365C65.5654 68.9365 61.6469 67.308 59.3045 64.051C56.9927 60.7683 56.3817 56.0366 57.4715 49.8559L63.1422 17.6958C64.1642 11.8998 66.372 7.50147 69.7657 4.50088C73.1854 1.50029 77.6687 0 83.2156 0C88.7625 0 92.7037 1.50029 95.0392 4.50088C97.4007 7.50147 98.0705 11.8998 97.0485 17.6958L91.3778 49.8559C90.288 56.0366 87.9953 60.7683 84.4998 64.051C81.0349 67.308 76.555 68.9365 71.0602 68.9365ZM73.3751 56.4726C75.4585 56.4726 76.8506 54.485 77.5515 50.5099L83.3782 17.4649C83.9661 14.131 83.2444 12.464 81.2132 12.464C78.9215 12.464 77.4749 14.1694 76.8735 17.5804L71.0536 50.5868C70.6828 52.6898 70.6764 54.2029 71.0344 55.1262C71.397 56.0238 72.1772 56.4726 73.3751 56.4726Z" fill="url(#paint1_linear_370_484)"/>
<path d="M96.8688 68.321L108.807 0.615505H122.948L123.558 33.0449L129.276 0.615505H142.557L130.619 68.321H117.181L116.275 34.4683L110.306 68.321H96.8688Z" fill="url(#paint2_linear_370_484)"/>
<path d="M139.913 68.321L151.851 0.615505H170.757C175.705 0.615505 179.189 1.97474 181.21 4.69322C183.235 7.38606 183.789 11.3355 182.871 16.5417L177.281 48.2402C176.151 54.6517 174.132 59.6014 171.226 63.0892C168.345 66.5771 164.053 68.321 158.35 68.321H139.913ZM155.85 56.3572H158.233C160.759 56.3572 162.235 55.1518 162.66 52.7411L168.819 17.8112C169.217 15.5543 169.16 14.1053 168.648 13.4642C168.166 12.7974 166.988 12.464 165.113 12.464H163.59L155.85 56.3572Z" fill="url(#paint3_linear_370_484)"/>
<path d="M182.566 68.321L194.504 0.615505H222.004L219.698 13.695H206.182L203.855 26.8899H216.824L214.579 39.6231H201.61L198.877 55.1262H213.291L210.964 68.321H182.566Z" fill="url(#paint4_linear_370_484)"/>
<path d="M218.734 68.321L230.673 0.615505H251.766C255.282 0.615505 257.798 1.41053 259.315 3.00059C260.836 4.56499 261.645 6.77055 261.742 9.61726C261.869 12.4383 261.596 15.7595 260.922 19.5807C260.271 23.2738 259.269 26.2231 257.917 28.4286C256.591 30.6342 254.538 32.1601 251.758 33.0064C253.843 33.4424 255.165 34.5067 255.726 36.1994C256.318 37.8664 256.378 40.0335 255.908 42.7006L251.391 68.321H237.836L242.51 41.8159C242.858 39.8411 242.656 38.6229 241.904 38.1613C241.183 37.674 239.91 37.4304 238.087 37.4304L232.641 68.321H218.734ZM240.234 25.6973H243.555C245.456 25.6973 246.766 23.6585 247.485 19.5807C247.951 16.9392 248.048 15.2081 247.776 14.3874C247.504 13.5668 246.795 13.1564 245.649 13.1564H242.446L240.234 25.6973Z" fill="url(#paint5_linear_370_484)"/>
<path d="M270.673 30.4697L271.937 23.3049H280.677L279.414 30.4697H270.673ZM263.924 68.7464L270.283 32.6817H279.024L272.664 68.7464H263.924Z" fill="url(#paint6_linear_370_484)"/>
<path d="M278.131 68.7464L284.49 32.6817H293.231L292.421 37.2739C292.989 35.8955 293.798 34.7254 294.846 33.7636C295.914 32.7859 297.237 32.297 298.816 32.297C301.355 32.297 303.059 33.0664 303.927 34.6051C304.811 36.1439 305.017 38.2517 304.545 40.9285L299.64 68.7464H291.022L295.77 41.8181C295.894 41.1128 295.862 40.4637 295.674 39.8706C295.488 39.2615 295.038 38.9569 294.321 38.9569C293.654 38.9569 293.117 39.1894 292.709 39.6542C292.321 40.103 292.025 40.672 291.822 41.3613C291.622 42.0345 291.463 42.7077 291.344 43.3809L286.871 68.7464H278.131Z" fill="url(#paint7_linear_370_484)"/>
<path d="M314.609 68.321L326.548 0.615505H354.048L351.741 13.695H338.226L335.899 26.8899H348.868L346.623 39.6231H333.654L330.92 55.1262H345.334L343.008 68.321H314.609Z" fill="url(#paint8_linear_370_484)"/>
<path d="M350.778 68.321L362.716 0.615505H376.31L371.528 27.7362L382.716 0.615505H396.545L383.382 31.6216L386.208 68.321H371.95L370.229 35.5454L364.45 68.321H350.778Z" fill="url(#paint9_linear_370_484)"/>
<path d="M408.088 68.9365C402.594 68.9365 398.675 67.308 396.333 64.051C394.021 60.7683 393.41 56.0366 394.5 49.8559L400.17 17.6958C401.192 11.8998 403.4 7.50147 406.794 4.50088C410.214 1.50029 414.697 0 420.244 0C425.791 0 429.732 1.50029 432.067 4.50088C434.429 7.50147 435.099 11.8998 434.077 17.6958L428.406 49.8559C427.316 56.0366 425.023 60.7683 421.528 64.051C418.063 67.308 413.583 68.9365 408.088 68.9365ZM410.403 56.4726C412.487 56.4726 413.879 54.485 414.58 50.5099L420.406 17.4649C420.994 14.131 420.273 12.464 418.241 12.464C415.95 12.464 414.503 14.1694 413.902 17.5804L408.082 50.5868C407.711 52.6898 407.704 54.2029 408.063 55.1262C408.425 56.0238 409.205 56.4726 410.403 56.4726Z" fill="url(#paint10_linear_370_484)"/>
<path d="M433.897 68.321L445.835 0.615505H464.741C469.689 0.615505 473.174 1.97474 475.194 4.69322C477.219 7.38606 477.773 11.3355 476.855 16.5417L471.266 48.2402C470.135 54.6517 468.117 59.6014 465.21 63.0892C462.329 66.5771 458.037 68.321 452.334 68.321H433.897ZM449.835 56.3572H452.217C454.743 56.3572 456.219 55.1518 456.644 52.7411L462.803 17.8112C463.201 15.5543 463.144 14.1053 462.632 13.4642C462.151 12.7974 460.973 12.464 459.098 12.464H457.574L449.835 56.3572Z" fill="url(#paint11_linear_370_484)"/>
<path d="M474.675 68.321L493.254 0.615505H516.574L511.159 68.321H498.152L499.101 57.3958H490.82L488.034 68.321H474.675ZM493.703 46.586H499.953L503.016 12.1562H502.391L493.703 46.586Z" fill="url(#paint12_linear_370_484)"/>
<defs>
<linearGradient id="paint0_linear_370_484" x1="180.604" y1="-6.08334" x2="207.238" y2="119.471" gradientUnits="userSpaceOnUse">
<stop stop-color="#0E16FF"/>
<stop offset="1" stop-color="#0D14C4"/>
</linearGradient>
<linearGradient id="paint1_linear_370_484" x1="180.604" y1="-6.08334" x2="207.238" y2="119.471" gradientUnits="userSpaceOnUse">
<stop stop-color="#0E16FF"/>
<stop offset="1" stop-color="#0D14C4"/>
</linearGradient>
<linearGradient id="paint2_linear_370_484" x1="180.604" y1="-6.08334" x2="207.238" y2="119.471" gradientUnits="userSpaceOnUse">
<stop stop-color="#0E16FF"/>
<stop offset="1" stop-color="#0D14C4"/>
</linearGradient>
<linearGradient id="paint3_linear_370_484" x1="180.604" y1="-6.08334" x2="207.238" y2="119.471" gradientUnits="userSpaceOnUse">
<stop stop-color="#0E16FF"/>
<stop offset="1" stop-color="#0D14C4"/>
</linearGradient>
<linearGradient id="paint4_linear_370_484" x1="180.604" y1="-6.08334" x2="207.238" y2="119.471" gradientUnits="userSpaceOnUse">
<stop stop-color="#0E16FF"/>
<stop offset="1" stop-color="#0D14C4"/>
</linearGradient>
<linearGradient id="paint5_linear_370_484" x1="180.604" y1="-6.08334" x2="207.238" y2="119.471" gradientUnits="userSpaceOnUse">
<stop stop-color="#0E16FF"/>
<stop offset="1" stop-color="#0D14C4"/>
</linearGradient>
<linearGradient id="paint6_linear_370_484" x1="180.604" y1="-6.08334" x2="207.238" y2="119.471" gradientUnits="userSpaceOnUse">
<stop stop-color="#0E16FF"/>
<stop offset="1" stop-color="#0D14C4"/>
</linearGradient>
<linearGradient id="paint7_linear_370_484" x1="180.604" y1="-6.08334" x2="207.238" y2="119.471" gradientUnits="userSpaceOnUse">
<stop stop-color="#0E16FF"/>
<stop offset="1" stop-color="#0D14C4"/>
</linearGradient>
<linearGradient id="paint8_linear_370_484" x1="180.604" y1="-6.08334" x2="207.238" y2="119.471" gradientUnits="userSpaceOnUse">
<stop stop-color="#0E16FF"/>
<stop offset="1" stop-color="#0D14C4"/>
</linearGradient>
<linearGradient id="paint9_linear_370_484" x1="180.604" y1="-6.08334" x2="207.238" y2="119.471" gradientUnits="userSpaceOnUse">
<stop stop-color="#0E16FF"/>
<stop offset="1" stop-color="#0D14C4"/>
</linearGradient>
<linearGradient id="paint10_linear_370_484" x1="180.604" y1="-6.08334" x2="207.238" y2="119.471" gradientUnits="userSpaceOnUse">
<stop stop-color="#0E16FF"/>
<stop offset="1" stop-color="#0D14C4"/>
</linearGradient>
<linearGradient id="paint11_linear_370_484" x1="180.604" y1="-6.08334" x2="207.238" y2="119.471" gradientUnits="userSpaceOnUse">
<stop stop-color="#0E16FF"/>
<stop offset="1" stop-color="#0D14C4"/>
</linearGradient>
<linearGradient id="paint12_linear_370_484" x1="180.604" y1="-6.08334" x2="207.238" y2="119.471" gradientUnits="userSpaceOnUse">
<stop stop-color="#0E16FF"/>
<stop offset="1" stop-color="#0D14C4"/>
</linearGradient>
</defs>
</svg>
