<svg width="132" height="35" viewBox="0 0 132 35" fill="none" xmlns="http://www.w3.org/2000/svg">
<path d="M3.74567 34.1605L6.02342 0.307753H12.7422L10.8687 21.6773L16.5703 0.307753H22.9765L21.0445 21.6773L26.6484 0.307753H33.4453L23.7261 34.1605H15.484L16.6379 17.8689L12.1246 34.1605H3.74567ZM38.4758 34.4683C35.7284 34.4683 33.7691 33.654 32.5979 32.0255C31.442 30.3841 31.1365 28.0183 31.6814 24.9279L34.5168 8.84788C35.0278 5.94988 36.1317 3.75073 37.8285 2.25044C39.5384 0.750147 41.78 2.83122e-07 44.5535 2.83122e-07C47.3269 2.83122e-07 49.2975 0.750147 50.4652 2.25044C51.646 3.75073 51.9809 5.94988 51.4699 8.84788L48.6346 24.9279C48.0896 28.0183 46.9433 30.3841 45.1956 32.0255C43.4631 33.654 41.2232 34.4683 38.4758 34.4683ZM39.6332 28.2363C40.6749 28.2363 41.371 27.2425 41.7214 25.2549L44.6348 8.73248C44.9287 7.06548 44.5679 6.23199 43.5523 6.23199C42.4064 6.23199 41.6831 7.08472 41.3824 8.79018L38.4725 25.2934C38.2871 26.3449 38.2839 27.1014 38.4629 27.5631C38.6442 28.0119 39.0343 28.2363 39.6332 28.2363ZM50.58 34.1605L56.5492 0.307753H63.6195L63.9245 16.5225L66.7836 0.307753H73.4242L67.455 34.1605H60.7363L60.2834 17.2341L57.2988 34.1605H50.58ZM71.3019 34.1605L77.2711 0.307753H86.7242C89.1982 0.307753 90.9403 0.987373 91.9506 2.34661C92.9632 3.69303 93.24 5.66777 92.781 8.27085L89.9864 24.1201C89.4211 27.3259 88.4118 29.8007 86.9585 31.5446C85.5182 33.2886 83.3722 34.1605 80.5207 34.1605H71.3019ZM79.2708 28.1786H80.4622C81.7252 28.1786 82.463 27.5759 82.6755 26.3705L85.755 8.90559C85.954 7.77716 85.9255 7.05266 85.6695 6.73208C85.4289 6.39869 84.8398 6.23199 83.9023 6.23199H83.1405L79.2708 28.1786ZM91.8285 34.1605L97.7976 0.307753H111.548L110.395 6.84749H103.637L102.473 13.4449H108.958L107.835 19.8116H101.351L99.984 27.5631H107.191L106.028 34.1605H91.8285ZM109.113 34.1605L115.082 0.307753H125.629C127.387 0.307753 128.645 0.705266 129.403 1.50029C130.164 2.2825 130.568 3.38528 130.617 4.80863C130.68 6.21916 130.544 7.87974 130.207 9.79037C129.881 11.6369 129.38 13.1115 128.704 14.2143C128.041 15.3171 127.014 16.0801 125.625 16.5032C126.667 16.7212 127.328 17.2534 127.609 18.0997C127.905 18.9332 127.935 20.0167 127.7 21.3503L125.441 34.1605H118.664L121 20.9079C121.175 19.9206 121.074 19.3115 120.698 19.0807C120.337 18.837 119.701 18.7152 118.789 18.7152L116.066 34.1605H109.113ZM119.863 12.8487H121.523C122.474 12.8487 123.129 11.8292 123.488 9.79037C123.721 8.4696 123.769 7.60405 123.633 7.19371C123.497 6.78338 123.143 6.57821 122.57 6.57821H120.969L119.863 12.8487Z" fill="#0008E6"/>
</svg>
