<?xml version="1.0" encoding="UTF-8"?>
<svg id="_レイヤー_1" xmlns="http://www.w3.org/2000/svg" version="1.1" xmlns:xlink="http://www.w3.org/1999/xlink" viewBox="0 0 310 175.02">
  <!-- Generator: Adobe Illustrator 29.8.2, SVG Export Plug-In . SVG Version: 2.1.1 Build 3)  -->
  <defs>
    <style>
      .st0 {
        fill: url(#_名称未設定グラデーション_5);
      }

      .st1, .st2 {
        fill: none;
        stroke: #e0e1ff;
        stroke-opacity: .5;
        stroke-width: 2px;
      }

      .st3 {
        fill: url(#_名称未設定グラデーション_13);
      }

      .st4 {
        fill: url(#_名称未設定グラデーション_6);
      }

      .st5 {
        fill: url(#_名称未設定グラデーション_2);
      }

      .st6 {
        fill: url(#_名称未設定グラデーション_11);
      }

      .st7 {
        fill: url(#_名称未設定グラデーション);
      }

      .st8 {
        fill: url(#_名称未設定グラデーション_12);
      }

      .st9 {
        fill: url(#_名称未設定グラデーション_8);
      }

      .st10 {
        fill: url(#_名称未設定グラデーション_4);
      }

      .st11 {
        fill: url(#_名称未設定グラデーション_3);
      }

      .st12, .st2 {
        display: none;
      }

      .st13 {
        fill: url(#_名称未設定グラデーション_10);
      }

      .st14 {
        fill: url(#_名称未設定グラデーション_7);
      }

      .st15 {
        fill: url(#_名称未設定グラデーション_9);
      }
    </style>
    <linearGradient id="_名称未設定グラデーション" data-name="名称未設定グラデーション" x1="40.89" y1="638.01" x2="204.48" y2="820.83" gradientTransform="translate(0 -591.49)" gradientUnits="userSpaceOnUse">
      <stop offset="0" stop-color="#0e16ff"/>
      <stop offset="1" stop-color="#0d14c4"/>
    </linearGradient>
    <linearGradient id="_名称未設定グラデーション_2" data-name="名称未設定グラデーション 2" x1="71.93" y1="610.24" x2="235.52" y2="793.05" gradientTransform="translate(0 -591.49)" gradientUnits="userSpaceOnUse">
      <stop offset="0" stop-color="#0e16ff"/>
      <stop offset="1" stop-color="#0d14c4"/>
    </linearGradient>
    <linearGradient id="_名称未設定グラデーション_3" data-name="名称未設定グラデーション 3" x1="99.56" y1="585.51" x2="263.15" y2="768.33" gradientTransform="translate(0 -591.49)" gradientUnits="userSpaceOnUse">
      <stop offset="0" stop-color="#0e16ff"/>
      <stop offset="1" stop-color="#0d14c4"/>
    </linearGradient>
    <linearGradient id="_名称未設定グラデーション_4" data-name="名称未設定グラデーション 4" x1="125.01" y1="562.73" x2="288.61" y2="745.55" gradientTransform="translate(0 -591.49)" gradientUnits="userSpaceOnUse">
      <stop offset="0" stop-color="#0e16ff"/>
      <stop offset="1" stop-color="#0d14c4"/>
    </linearGradient>
    <linearGradient id="_名称未設定グラデーション_5" data-name="名称未設定グラデーション 5" x1="153.38" y1="537.35" x2="316.97" y2="720.16" gradientTransform="translate(0 -591.49)" gradientUnits="userSpaceOnUse">
      <stop offset="0" stop-color="#0e16ff"/>
      <stop offset="1" stop-color="#0d14c4"/>
    </linearGradient>
    <linearGradient id="_名称未設定グラデーション_6" data-name="名称未設定グラデーション 6" x1="176.63" y1="516.54" x2="340.23" y2="699.35" gradientTransform="translate(0 -591.49)" gradientUnits="userSpaceOnUse">
      <stop offset="0" stop-color="#0e16ff"/>
      <stop offset="1" stop-color="#0d14c4"/>
    </linearGradient>
    <linearGradient id="_名称未設定グラデーション_7" data-name="名称未設定グラデーション 7" x1="-25.5" y1="697.43" x2="138.09" y2="880.24" gradientTransform="translate(0 -591.49)" gradientUnits="userSpaceOnUse">
      <stop offset="0" stop-color="#0e16ff"/>
      <stop offset="1" stop-color="#0d14c4"/>
    </linearGradient>
    <linearGradient id="_名称未設定グラデーション_8" data-name="名称未設定グラデーション 8" x1="-16.54" y1="689.4" x2="147.06" y2="872.22" gradientTransform="translate(0 -591.49)" gradientUnits="userSpaceOnUse">
      <stop offset="0" stop-color="#0e16ff"/>
      <stop offset="1" stop-color="#0d14c4"/>
    </linearGradient>
    <linearGradient id="_名称未設定グラデーション_9" data-name="名称未設定グラデーション 9" x1="17.55" y1="658.9" x2="181.14" y2="841.72" gradientTransform="translate(0 -591.49)" gradientUnits="userSpaceOnUse">
      <stop offset="0" stop-color="#0e16ff"/>
      <stop offset="1" stop-color="#0d14c4"/>
    </linearGradient>
    <linearGradient id="_名称未設定グラデーション_10" data-name="名称未設定グラデーション 10" x1="43.2" y1="635.95" x2="206.79" y2="818.76" gradientTransform="translate(0 -591.49)" gradientUnits="userSpaceOnUse">
      <stop offset="0" stop-color="#0e16ff"/>
      <stop offset="1" stop-color="#0d14c4"/>
    </linearGradient>
    <linearGradient id="_名称未設定グラデーション_11" data-name="名称未設定グラデーション 11" x1="69.7" y1="612.23" x2="233.3" y2="795.04" gradientTransform="translate(0 -591.49)" gradientUnits="userSpaceOnUse">
      <stop offset="0" stop-color="#0e16ff"/>
      <stop offset="1" stop-color="#0d14c4"/>
    </linearGradient>
    <linearGradient id="_名称未設定グラデーション_12" data-name="名称未設定グラデーション 12" x1="94.74" y1="589.82" x2="258.33" y2="772.63" gradientTransform="translate(0 -591.49)" gradientUnits="userSpaceOnUse">
      <stop offset="0" stop-color="#0e16ff"/>
      <stop offset="1" stop-color="#0d14c4"/>
    </linearGradient>
    <linearGradient id="_名称未設定グラデーション_13" data-name="名称未設定グラデーション 13" x1="122.69" y1="564.81" x2="286.28" y2="747.63" gradientTransform="translate(0 -591.49)" gradientUnits="userSpaceOnUse">
      <stop offset="0" stop-color="#0e16ff"/>
      <stop offset="1" stop-color="#0d14c4"/>
    </linearGradient>
  </defs>
  <path class="st7" d="M1.37,80.91L6.72,1.74h15.77l-4.4,49.97L31.48,1.74h15.04l-4.54,49.97L55.14,1.74h15.96l-22.82,79.16h-19.35l2.71-38.1-10.59,38.1H1.37Z" shape-rendering="crispEdges"/>
  <path class="st5" d="M84.78,81.63c-6.45,0-11.05-1.9-13.8-5.71-2.71-3.84-3.43-9.37-2.15-16.6l6.66-37.6c1.2-6.78,3.79-11.92,7.77-15.43,4.01-3.51,9.28-5.26,15.79-5.26s11.14,1.75,13.88,5.26c2.77,3.51,3.56,8.65,2.36,15.43l-6.66,37.6c-1.28,7.23-3.97,12.76-8.07,16.6-4.07,3.81-9.33,5.71-15.77,5.71h0ZM87.5,67.05c2.45,0,4.08-2.32,4.9-6.97l6.84-38.64c.69-3.9-.16-5.85-2.54-5.85-2.69,0-4.39,1.99-5.09,5.98l-6.83,38.59c-.44,2.46-.44,4.23-.02,5.31.43,1.05,1.34,1.57,2.75,1.57h-.01Z" shape-rendering="crispEdges"/>
  <path class="st11" d="M115.07,80.91L129.09,1.74h16.6l.72,37.92,6.71-37.92h15.59l-14.01,79.16h-15.77l-1.06-39.58-7.01,39.58h-15.79Z" shape-rendering="crispEdges"/>
  <path class="st10" d="M165.59,80.91L179.61,1.74h22.19c5.81,0,9.9,1.59,12.27,4.77,2.38,3.15,3.03,7.77,1.95,13.85l-6.56,37.06c-1.33,7.5-3.7,13.28-7.11,17.36-3.38,4.08-8.42,6.12-15.11,6.12h-21.65ZM184.3,66.92h2.8c2.97,0,4.7-1.41,5.2-4.23l7.23-40.84c.47-2.64.4-4.33-.2-5.08-.56-.78-1.95-1.17-4.15-1.17h-1.79l-9.08,51.32h-.01Z" shape-rendering="crispEdges"/>
  <path class="st0" d="M215.66,80.91L229.67,1.74h32.28l-2.71,15.29h-15.86l-2.73,15.43h15.22l-2.64,14.89h-15.22l-3.21,18.13h16.92l-2.73,15.43h-33.33Z" shape-rendering="crispEdges"/>
  <path class="st4" d="M258.11,80.91L272.12,1.74h24.76c4.13,0,7.08.93,8.86,2.79,1.79,1.83,2.73,4.41,2.85,7.74.15,3.3-.17,7.18-.96,11.65-.76,4.32-1.94,7.77-3.53,10.35-1.56,2.58-3.97,4.36-7.23,5.35,2.45.51,4,1.75,4.66,3.73.69,1.95.77,4.48.21,7.6l-5.3,29.96h-15.91l5.49-30.99c.41-2.31.17-3.73-.71-4.27-.85-.57-2.34-.85-4.48-.85l-6.39,36.12h-16.33ZM283.35,31.07h3.9c2.23,0,3.77-2.38,4.61-7.15.55-3.09.66-5.11.34-6.07s-1.15-1.44-2.5-1.44h-3.76l-2.6,14.66h.01Z" shape-rendering="crispEdges"/>
  <path class="st14" d="M9.52,129.02l1.48-8.38h10.26l-1.48,8.38h-10.26ZM1.6,173.77l7.46-42.17h10.26l-7.46,42.17H1.6Z" shape-rendering="crispEdges"/>
  <path class="st9" d="M18.27,173.77l7.46-42.17h10.26l-.95,5.37c.67-1.61,1.62-2.98,2.85-4.1,1.25-1.14,2.81-1.71,4.66-1.71,2.98,0,4.98.9,6,2.7,1.04,1.8,1.28,4.26.73,7.39l-5.76,32.53h-10.12l5.57-31.49c.15-.83.11-1.58-.11-2.28-.22-.71-.75-1.07-1.59-1.07-.78,0-1.41.27-1.89.81-.46.52-.8,1.19-1.04,2-.23.79-.42,1.57-.56,2.36l-5.25,29.66h-10.26,0Z" shape-rendering="crispEdges"/>
  <path class="st15" d="M53.73,173.28l14.01-79.16h32.28l-2.71,15.29h-15.86l-2.73,15.43h15.22l-2.64,14.89h-15.22l-3.21,18.13h16.92l-2.73,15.43h-33.33,0Z" shape-rendering="crispEdges"/>
  <path class="st13" d="M96.19,173.28l14.01-79.16h15.96l-5.61,31.71,13.13-31.71h16.23l-15.45,36.25,3.32,42.91h-16.73l-2.02-38.32-6.78,38.32h-16.06Z" shape-rendering="crispEdges"/>
  <path class="st6" d="M163.45,174c-6.45,0-11.05-1.9-13.8-5.71-2.71-3.84-3.43-9.37-2.15-16.6l6.66-37.6c1.2-6.78,3.79-11.92,7.77-15.43,4.01-3.51,9.28-5.26,15.79-5.26s11.14,1.75,13.88,5.26c2.77,3.51,3.56,8.65,2.36,15.43l-6.66,37.6c-1.28,7.23-3.97,12.76-8.07,16.6-4.07,3.81-9.32,5.71-15.77,5.71h-.01ZM166.17,159.42c2.45,0,4.08-2.32,4.9-6.97l6.84-38.64c.69-3.9-.16-5.85-2.54-5.85-2.69,0-4.39,1.99-5.09,5.98l-6.83,38.59c-.44,2.46-.44,4.23-.02,5.31.43,1.05,1.34,1.57,2.75,1.57h0Z" shape-rendering="crispEdges"/>
  <path class="st8" d="M193.75,173.28l14.01-79.16h22.19c5.81,0,9.9,1.59,12.27,4.77,2.38,3.15,3.03,7.77,1.95,13.85l-6.56,37.06c-1.33,7.5-3.7,13.28-7.11,17.36-3.38,4.08-8.42,6.12-15.11,6.12h-21.64ZM212.45,159.29h2.8c2.96,0,4.7-1.41,5.19-4.23l7.23-40.84c.47-2.64.4-4.33-.2-5.08-.57-.78-1.95-1.17-4.15-1.17h-1.79l-9.08,51.32h0Z" shape-rendering="crispEdges"/>
  <path class="st3" d="M241.61,173.28l21.81-79.16h27.37l-6.36,79.16h-15.27l1.11-12.77h-9.72l-3.27,12.77h-15.68,0ZM263.94,147.86h7.34l3.6-40.26h-.73l-10.2,40.26h0Z" shape-rendering="crispEdges"/>
  <g class="st12">
    <path class="st1" d="M1.37,80.91L6.72,1.74h15.77l-4.4,49.97L31.48,1.74h15.04l-4.54,49.97L55.14,1.74h15.96l-22.82,79.16h-19.35l2.71-38.1-10.59,38.1H1.37Z" shape-rendering="crispEdges"/>
  </g>
  <g class="st12">
    <path class="st1" d="M84.78,81.63c-6.45,0-11.05-1.9-13.8-5.71-2.71-3.84-3.43-9.37-2.15-16.6l6.66-37.6c1.2-6.78,3.79-11.92,7.77-15.43,4.01-3.51,9.28-5.26,15.79-5.26s11.14,1.75,13.88,5.26c2.77,3.51,3.56,8.65,2.36,15.43l-6.66,37.6c-1.28,7.23-3.97,12.76-8.07,16.6-4.07,3.81-9.33,5.71-15.77,5.71h0ZM87.5,67.05c2.45,0,4.08-2.32,4.9-6.97l6.84-38.64c.69-3.9-.16-5.85-2.54-5.85-2.69,0-4.39,1.99-5.09,5.98l-6.83,38.59c-.44,2.46-.44,4.23-.02,5.31.43,1.05,1.34,1.57,2.75,1.57h-.01Z" shape-rendering="crispEdges"/>
  </g>
  <g class="st12">
    <path class="st1" d="M115.07,80.91L129.09,1.74h16.6l.72,37.92,6.71-37.92h15.59l-14.01,79.16h-15.77l-1.06-39.58-7.01,39.58h-15.79Z" shape-rendering="crispEdges"/>
  </g>
  <g class="st12">
    <path class="st1" d="M165.59,80.91L179.61,1.74h22.19c5.81,0,9.9,1.59,12.27,4.77,2.38,3.15,3.03,7.77,1.95,13.85l-6.56,37.06c-1.33,7.5-3.7,13.28-7.11,17.36-3.38,4.08-8.42,6.12-15.11,6.12h-21.65ZM184.3,66.92h2.8c2.97,0,4.7-1.41,5.2-4.23l7.23-40.84c.47-2.64.4-4.33-.2-5.08-.56-.78-1.95-1.17-4.15-1.17h-1.79l-9.08,51.32h-.01Z" shape-rendering="crispEdges"/>
  </g>
  <g class="st12">
    <path class="st1" d="M215.66,80.91L229.67,1.74h32.28l-2.71,15.29h-15.86l-2.73,15.43h15.22l-2.64,14.89h-15.22l-3.21,18.13h16.92l-2.73,15.43h-33.33Z" shape-rendering="crispEdges"/>
  </g>
  <g class="st12">
    <path class="st1" d="M258.11,80.91L272.12,1.74h24.76c4.13,0,7.08.93,8.86,2.79,1.79,1.83,2.73,4.41,2.85,7.74.15,3.3-.17,7.18-.96,11.65-.76,4.32-1.94,7.77-3.53,10.35-1.56,2.58-3.97,4.36-7.23,5.35,2.45.51,4,1.75,4.66,3.73.69,1.95.77,4.48.21,7.6l-5.3,29.96h-15.91l5.49-30.99c.41-2.31.17-3.73-.71-4.27-.85-.57-2.34-.85-4.48-.85l-6.39,36.12h-16.33ZM283.35,31.07h3.9c2.23,0,3.77-2.38,4.61-7.15.55-3.09.66-5.11.34-6.07s-1.15-1.44-2.5-1.44h-3.76l-2.6,14.66h.01Z" shape-rendering="crispEdges"/>
  </g>
  <g class="st12">
    <path class="st1" d="M9.52,129.02l1.48-8.38h10.26l-1.48,8.38h-10.26ZM1.6,173.77l7.46-42.17h10.26l-7.46,42.17H1.6Z" shape-rendering="crispEdges"/>
  </g>
  <g class="st12">
    <path class="st1" d="M18.27,173.77l7.46-42.17h10.26l-.95,5.37c.67-1.61,1.62-2.98,2.85-4.1,1.25-1.14,2.81-1.71,4.66-1.71,2.98,0,4.98.9,6,2.7,1.04,1.8,1.28,4.26.73,7.39l-5.76,32.53h-10.12l5.57-31.49c.15-.83.11-1.58-.11-2.28-.22-.71-.75-1.07-1.59-1.07-.78,0-1.41.27-1.89.81-.46.52-.8,1.19-1.04,2-.23.79-.42,1.57-.56,2.36l-5.25,29.66h-10.26,0Z" shape-rendering="crispEdges"/>
  </g>
  <g class="st12">
    <path class="st1" d="M53.73,173.28l14.01-79.16h32.28l-2.71,15.29h-15.86l-2.73,15.43h15.22l-2.64,14.89h-15.22l-3.21,18.13h16.92l-2.73,15.43h-33.33,0Z" shape-rendering="crispEdges"/>
  </g>
  <g class="st12">
    <path class="st1" d="M96.19,173.28l14.01-79.16h15.96l-5.61,31.71,13.13-31.71h16.23l-15.45,36.25,3.32,42.91h-16.73l-2.02-38.32-6.78,38.32h-16.06Z" shape-rendering="crispEdges"/>
  </g>
  <g class="st12">
    <path class="st1" d="M163.45,174c-6.45,0-11.05-1.9-13.8-5.71-2.71-3.84-3.43-9.37-2.15-16.6l6.66-37.6c1.2-6.78,3.79-11.92,7.77-15.43,4.01-3.51,9.28-5.26,15.79-5.26s11.14,1.75,13.88,5.26c2.77,3.51,3.56,8.65,2.36,15.43l-6.66,37.6c-1.28,7.23-3.97,12.76-8.07,16.6-4.07,3.81-9.32,5.71-15.77,5.71h-.01ZM166.17,159.42c2.45,0,4.08-2.32,4.9-6.97l6.84-38.64c.69-3.9-.16-5.85-2.54-5.85-2.69,0-4.39,1.99-5.09,5.98l-6.83,38.59c-.44,2.46-.44,4.23-.02,5.31.43,1.05,1.34,1.57,2.75,1.57h0Z" shape-rendering="crispEdges"/>
  </g>
  <g class="st12">
    <path class="st1" d="M193.75,173.28l14.01-79.16h22.19c5.81,0,9.9,1.59,12.27,4.77,2.38,3.15,3.03,7.77,1.95,13.85l-6.56,37.06c-1.33,7.5-3.7,13.28-7.11,17.36-3.38,4.08-8.42,6.12-15.11,6.12h-21.64ZM212.45,159.29h2.8c2.96,0,4.7-1.41,5.19-4.23l7.23-40.84c.47-2.64.4-4.33-.2-5.08-.57-.78-1.95-1.17-4.15-1.17h-1.79l-9.08,51.32h0Z" shape-rendering="crispEdges"/>
  </g>
  <g class="st12">
    <path class="st2" d="M241.61,173.28l21.81-79.16h27.37l-6.36,79.16h-15.27l1.11-12.77h-9.72l-3.27,12.77h-15.68,0ZM263.94,147.86h7.34l3.6-40.26h-.73l-10.2,40.26h0Z" shape-rendering="crispEdges"/>
  </g>
</svg>